<svg xmlns="http://www.w3.org/2000/svg" viewBox="0 0 600 200" fill="none">
  <defs>
    <linearGradient id="bg" x1="0" y1="0" x2="600" y2="200" gradientUnits="userSpaceOnUse">
      <stop offset="0%" stop-color="#0f172a"/>
      <stop offset="100%" stop-color="#1e293b"/>
    </linearGradient>
  </defs>
  <rect width="600" height="200" rx="12" fill="url(#bg)"/>
  <text x="300" y="24" font-family="system-ui, sans-serif" font-size="13" font-weight="700" fill="#38bdf8" text-anchor="middle" letter-spacing="2">GO</text>
  <!-- Scale bar -->
  <rect x="40" y="40" width="520" height="28" rx="14" fill="#1e293b" stroke="#334155" stroke-width="1"/>
  <rect x="40" y="40" width="104" height="28" rx="14" fill="#ef4444" opacity="0.25"/>
  <rect x="144" y="40" width="104" height="28" fill="#f59e0b" opacity="0.2"/>
  <rect x="248" y="40" width="104" height="28" fill="#38bdf8" opacity="0.2"/>
  <rect x="352" y="40" width="104" height="28" fill="#818cf8" opacity="0.2"/>
  <rect x="456" y="40" width="104" height="28" rx="14" fill="#22c55e" opacity="0.25"/>
  <!-- Labels -->
  <text x="92" y="58" font-family="system-ui, sans-serif" font-size="10" font-weight="700" fill="#ef4444" text-anchor="middle">Beginner</text>
  <text x="196" y="58" font-family="system-ui, sans-serif" font-size="10" font-weight="700" fill="#f59e0b" text-anchor="middle">Casual</text>
  <text x="300" y="58" font-family="system-ui, sans-serif" font-size="10" font-weight="700" fill="#38bdf8" text-anchor="middle">Club</text>
  <text x="404" y="58" font-family="system-ui, sans-serif" font-size="10" font-weight="700" fill="#818cf8" text-anchor="middle">Pro</text>
  <text x="508" y="58" font-family="system-ui, sans-serif" font-size="10" font-weight="700" fill="#22c55e" text-anchor="middle">Superhuman</text>
  <!-- Rank labels -->
  <text x="92" y="82" font-family="monospace" font-size="9" fill="#94a3b8" text-anchor="middle">~16+ kyu</text>
  <text x="196" y="82" font-family="monospace" font-size="9" fill="#94a3b8" text-anchor="middle">~13 kyu</text>
  <text x="300" y="82" font-family="monospace" font-size="9" fill="#94a3b8" text-anchor="middle">~4 kyu</text>
  <text x="404" y="82" font-family="monospace" font-size="9" fill="#94a3b8" text-anchor="middle">~1-3 dan</text>
  <text x="508" y="82" font-family="monospace" font-size="9" fill="#94a3b8" text-anchor="middle">9 dan+</text>
  <!-- References -->
  <g font-family="system-ui, sans-serif" font-size="9" fill="#64748b">
    <line x1="92" y1="92" x2="92" y2="102" stroke="#475569" stroke-width="1"/>
    <text x="92" y="112" text-anchor="middle">First games</text>
    <text x="92" y="123" text-anchor="middle" fill="#475569">10 visits</text>
    <line x1="196" y1="92" x2="196" y2="102" stroke="#475569" stroke-width="1"/>
    <text x="196" y="112" text-anchor="middle">Online avg</text>
    <text x="196" y="123" text-anchor="middle" fill="#475569">50 visits</text>
    <line x1="300" y1="92" x2="300" y2="102" stroke="#475569" stroke-width="1"/>
    <text x="300" y="112" text-anchor="middle">Go club regular</text>
    <text x="300" y="123" text-anchor="middle" fill="#475569">200 visits</text>
    <line x1="404" y1="92" x2="404" y2="102" stroke="#475569" stroke-width="1"/>
    <text x="404" y="112" text-anchor="middle">Professional</text>
    <text x="404" y="123" text-anchor="middle" fill="#475569">1000 visits</text>
    <line x1="508" y1="92" x2="508" y2="102" stroke="#475569" stroke-width="1"/>
    <text x="508" y="112" text-anchor="middle">Beyond human</text>
    <text x="508" y="123" text-anchor="middle" fill="#475569">5000 visits</text>
  </g>
  <!-- Famous markers -->
  <g font-family="system-ui, sans-serif" font-size="8">
    <circle cx="390" cy="148" r="3" fill="#818cf8"/>
    <text x="390" y="162" fill="#818cf8" text-anchor="middle">Lee Sedol 9p</text>
    <circle cx="450" cy="148" r="3" fill="#a78bfa"/>
    <text x="450" y="162" fill="#a78bfa" text-anchor="middle">Shin Jinseo #1</text>
    <circle cx="520" cy="148" r="3" fill="#22c55e"/>
    <text x="520" y="162" fill="#22c55e" text-anchor="middle">Tess AI</text>
    <circle cx="300" cy="148" r="3" fill="#38bdf8"/>
    <text x="300" y="162" fill="#38bdf8" text-anchor="middle">AGA 4 kyu</text>
  </g>
  <!-- Note -->
  <text x="300" y="188" font-family="system-ui, sans-serif" font-size="8" fill="#475569" text-anchor="middle">Powered by KataGo — the open-source successor to AlphaGo (defeated Lee Sedol 4-1 in 2016)</text>
</svg>
